Coordinates
version=1
nRows=21
nColumns=38
inDegrees=no

Units are S.I. units (second, meters, Newtons, ...)
If the header above contains a line with 'inDegrees', this indicates whether rotational values are in degrees (yes) or radians (no).

endheader
time	pelvis_tilt	pelvis_list	pelvis_rotation	pelvis_tx	pelvis_ty	pelvis_tz	hip_flexion_r	hip_adduction_r	hip_rotation_r	knee_angle_r	ankle_angle_r	subtalar_angle_r	mtp_angle_r	hip_flexion_l	hip_adduction_l	hip_rotation_l	knee_angle_l	ankle_angle_l	subtalar_angle_l	mtp_angle_l	lumbar_extension	lumbar_bending	lumbar_rotation	arm_flex_r	arm_add_r	arm_rot_r	elbow_flex_r	pro_sup_r	wrist_flex_r	wrist_dev_r	arm_flex_l	arm_add_l	arm_rot_l	elbow_flex_l	pro_sup_l	wrist_flex_l	wrist_dev_l
1.47	0.0556598	0.0451919	-0.0567148	0.784499	0.999508	-0.297021	-0.408655	-0.0785471	-0.0622185	-0.784139	-0.484155	-0.0149002	-0.00521914	0.436261	0.0913588	-0.0569893	-0.274872	0.101063	0.00093536	-0.0184272	-0.269433	-0.104336	0.204132	-0.329942	-0.427179	-0.243524	1.93619	1.44902	-0.0425677	-0.0936555	-0.760751	-0.303609	-0.220733	1.75695	1.5736	0.0999999	-0.0920333
1.48	0.0663955	0.0464163	-0.0525681	0.78357	0.996587	-0.297912	-0.381075	-0.0890556	-0.0707398	-0.894643	-0.465566	-0.0149002	-0.00521914	0.421571	0.0995062	-0.0464197	-0.298172	0.094969	0.00093536	-0.0184272	-0.286935	-0.105353	0.189677	-0.33282	-0.423553	-0.237266	1.92972	1.45463	-0.0425677	-0.0936555	-0.730291	-0.307647	-0.214534	1.7507	1.57154	0.0999999	-0.0920333
1.49	0.0767146	0.0521539	-0.046027	0.782299	0.992815	-0.299104	-0.348393	-0.105385	-0.0851971	-1.00744	-0.443451	-0.0149002	-0.00521914	0.409976	0.113002	-0.0378465	-0.341368	0.0877487	0.00093536	-0.0184272	-0.304649	-0.110354	0.171279	-0.336953	-0.41828	-0.231556	1.91861	1.45747	-0.0425677	-0.0936555	-0.692873	-0.314941	-0.203942	1.74165	1.57063	0.0999999	-0.0920333
1.5	0.0857443	0.0617594	-0.0373622	0.780745	0.988272	-0.300501	-0.31044	-0.126433	-0.103724	-1.11907	-0.418671	-0.0149002	-0.00521914	0.401419	0.131101	-0.0307214	-0.400406	0.0839079	0.00093536	-0.0184272	-0.321351	-0.118733	0.149536	-0.342495	-0.411313	-0.226494	1.90242	1.45742	-0.0425677	-0.0936555	-0.649129	-0.325208	-0.189134	1.72962	1.5712	0.0999999	-0.0920333
1.51	0.0929849	0.0742309	-0.027134	0.778988	0.983211	-0.30196	-0.267199	-0.150407	-0.123665	-1.22642	-0.391276	-0.0149002	-0.00521914	0.395185	0.152578	-0.0242496	-0.470608	0.0881281	0.00093536	-0.0184272	-0.33628	-0.129665	0.125094	-0.349184	-0.402737	-0.221754	1.88077	1.45457	-0.0425677	-0.0936555	-0.599902	-0.337753	-0.17069	1.7146	1.57355	0.0999999	-0.0920333
1.52	0.0983313	0.088307	-0.0161749	0.777093	0.978004	-0.30332	-0.21881	-0.17513	-0.142075	-1.32683	-0.361074	-0.0149002	-0.00521914	0.389766	0.175878	-0.0176691	-0.546628	0.103978	0.00093536	-0.0184272	-0.349104	-0.142211	0.0988135	-0.356586	-0.392716	-0.216823	1.85348	1.44923	-0.0425677	-0.0936555	-0.546071	-0.351638	-0.149371	1.69676	1.57783	0.0999999	-0.0920333
1.53	0.101966	0.102682	-0.00550156	0.775072	0.972993	-0.304424	-0.165597	-0.198395	-0.156298	-1.41808	-0.328109	-0.0149002	-0.00521914	0.382935	0.199287	-0.0104227	-0.622626	0.132932	0.00093536	-0.0184272	-0.359875	-0.1554	0.0717604	-0.364286	-0.381483	-0.211168	1.82075	1.44179	-0.0425677	-0.0936555	-0.48854	-0.365808	-0.12605	1.6765	1.58404	0.0999999	-0.0920333
1.54	0.104274	0.116128	0.00384613	0.772896	0.968427	-0.305158	-0.108121	-0.218262	-0.164448	-1.49837	-0.292913	-0.0149002	-0.00521914	0.372056	0.221124	-0.00219273	-0.692725	0.17404	0.00093536	-0.0184272	-0.368908	-0.168275	0.0450843	-0.372043	-0.369329	-0.204347	1.78323	1.43268	-0.0425677	-0.0936555	-0.428313	-0.379185	-0.101704	1.65458	1.59201	0.0999999	-0.0920333
1.55	0.105763	0.127596	0.0109892	0.770568	0.964517	-0.305483	-0.0472124	-0.233242	-0.165725	-1.56622	-0.256489	-0.0149002	-0.00521914	0.354557	0.239885	0.00715087	-0.75165	0.224235	0.00093536	-0.0184272	-0.376602	-0.179896	0.0198571	-0.379895	-0.356603	-0.196114	1.7422	1.42233	-0.0425677	-0.0936555	-0.366595	-0.39074	-0.07743	1.63223	1.60135	0.0999999	-0.0920333
1.56	0.106927	0.136229	0.0153769	0.768161	0.9615	-0.305417	0.0160264	-0.242387	-0.160507	-1.62047	-0.220109	-0.0149002	-0.00521914	0.328391	0.254357	0.0176041	-0.79531	0.279051	0.00093536	-0.0184272	-0.383299	-0.189343	-0.00307086	-0.388212	-0.343685	-0.186523	1.69944	1.41117	-0.0425677	-0.0936555	-0.304833	-0.399567	-0.054423	1.61106	1.61151	0.0999999	-0.0920333
1.57	0.108157	0.141373	0.0168715	0.765792	0.959592	-0.305013	0.0802619	-0.245278	-0.150208	-1.66023	-0.185055	-0.0149002	-0.00521914	0.292336	0.26368	0.0290424	-0.821128	0.333376	0.00093536	-0.0184272	-0.389167	-0.19573	-0.0231689	-0.397675	-0.330939	-0.176006	1.6572	1.39959	-0.0425677	-0.0936555	-0.244683	-0.404949	-0.0338872	1.59296	1.62181	0.0999999	-0.0920333
1.58	0.109604	0.142609	0.015735	0.763588	0.958914	-0.304366	0.144042	-0.241948	-0.13694	-1.68489	-0.152372	-0.0149002	-0.00521914	0.246132	0.267354	0.0411838	-0.828103	0.382087	0.00093536	-0.0184272	-0.394156	-0.19826	-0.0402489	-0.409162	-0.318661	-0.165379	1.6179	1.38795	-0.0425677	-0.0936555	-0.187878	-0.406442	-0.0168839	1.57984	1.63161	0.0999999	-0.0920333
1.59	0.111193	0.139745	0.0125457	0.761684	0.959462	-0.30359	0.205929	-0.232752	-0.123081	-1.6941	-0.122732	-0.0149002	-0.00521914	0.190446	0.26521	0.0535441	-0.816638	0.420494	0.00093536	-0.0184272	-0.397993	-0.196308	-0.0544374	-0.423582	-0.307051	-0.155748	1.58385	1.37651	-0.0425677	-0.0936555	-0.136063	-0.403948	-0.00415452	1.57336	1.64043	0.0999999	-0.0920333
1.6	0.112659	0.132804	0.00805502	0.76021	0.961145	-0.30279	0.264606	-0.218247	-0.110842	-1.68774	-0.0964285	-0.0149002	-0.00521914	0.126724	0.257364	0.0654135	-0.788276	0.444646	0.00093536	-0.0184272	-0.400246	-0.189502	-0.0661115	-0.441672	-0.2962	-0.148316	1.55695	1.36556	-0.0425677	-0.0936555	-0.0906251	-0.397751	0.00402442	1.57473	1.64795	0.0999999	-0.0920333
1.61	0.11362	0.122003	0.00302799	0.75928	0.963819	-0.302032	0.318941	-0.199095	-0.101931	-1.66581	-0.0734698	-0.0149002	-0.00521914	0.0569852	0.24417	0.0758699	-0.745428	0.451557	0.00093536	-0.0184272	-0.40043	-0.177778	-0.0758083	-0.463821	-0.286118	-0.144124	1.53843	1.35547	-0.0425677	-0.0936555	-0.0525563	-0.388515	0.00790914	1.5845	1.65403	0.0999999	-0.0920333
1.62	0.113658	0.107743	-0.00189212	0.758973	0.967305	-0.301347	0.368024	-0.176013	-0.0973347	-1.62836	-0.0537101	-0.0149002	-0.00521914	-0.0163795	0.226195	0.0838421	-0.691138	0.439384	0.00093536	-0.0184272	-0.398107	-0.161414	-0.0841233	-0.489973	-0.276767	-0.14383	1.52866	1.3467	-0.0425677	-0.0936555	-0.0223676	-0.377209	0.00825916	1.60257	1.65869	0.0999999	-0.0920333
1.63	0.112395	0.0905882	-0.00627715	0.759326	0.971405	-0.300738	0.411159	-0.149755	-0.0972095	-1.57544	-0.0369293	-0.0149002	-0.00521914	-0.0908164	0.204208	0.0882255	-0.628881	0.407535	0.00093536	-0.0184272	-0.392983	-0.141035	-0.0916112	-0.519604	-0.268085	-0.147569	1.52722	1.33973	-0.0425677	-0.0936555	-5.81971e-05	-0.364989	0.00621822	1.62823	1.66211	0.0999999	-0.0920333
1.64	0.109563	0.0712712	-0.00994673	0.760315	0.975909	-0.30018	0.447832	-0.121104	-0.100888	-1.50712	-0.0228304	-0.0149002	-0.00521914	-0.163803	0.179191	0.0880568	-0.562392	0.356711	0.00093536	-0.0184272	-0.384979	-0.117582	-0.0987106	-0.551788	-0.260003	-0.154942	1.53297	1.33488	-0.0425677	-0.0936555	0.0148621	-0.353048	0.00314149	1.66023	1.66463	0.0999999	-0.0920333
1.65	0.105057	0.0506929	-0.0129328	0.761862	0.980615	-0.299624	0.477669	-0.0908892	-0.106992	-1.42357	-0.010975	-0.0149002	-0.00521914	-0.233015	0.15233	0.0827295	-0.495525	0.288855	0.00093536	-0.0184272	-0.374275	-0.0922644	-0.105707	-0.585325	-0.252437	-0.16512	1.54431	1.33209	-0.0425677	-0.0936555	0.023309	-0.342472	0.000414783	1.69698	1.6668	0.0999999	-0.0920333
1.66	0.0989672	0.0299165	-0.0153863	0.76384	0.985328	-0.299019	0.50042	-0.0600398	-0.113673	-1.3253	-0.000729142	-0.0149002	-0.00521914	-0.296438	0.124992	0.0721992	-0.432144	0.207025	0.00093536	-0.0184272	-0.361309	-0.0664799	-0.112741	-0.618891	-0.245267	-0.177049	1.55942	1.331	-0.0425677	-0.0936555	0.0265262	-0.334119	-0.00069281	1.73669	1.66929	0.0999999	-0.0920333
1.67	0.0915747	0.0101368	-0.0174668	0.766093	0.989868	-0.298337	0.515953	-0.0296569	-0.118938	-1.21345	0.00871264	-0.0149002	-0.00521914	-0.352458	0.0986545	0.0571111	-0.376027	0.115184	0.00093536	-0.0184272	-0.346759	-0.0417166	-0.119841	-0.651181	-0.238327	-0.18967	1.57654	1.331	-0.0425677	-0.0936555	0.0259694	-0.32854	0.000874872	1.77745	1.67281	0.0999999	-0.0920333
